:FULLY-SPECIFIED
:DEGREES
1455
root 7.60351 16.7755 -3.31941 4530.37 -94.8075 -4515.06
lowerback 1.0501 1.46602 2.88813
upperback 2.0875 1.92107 0.641658
thorax 1.62615 0.98843 -0.950511
lowerneck -20.0531 1.40957 -2.55219
upperneck 34.5844 1.37594 2.33328
head 15.4887 0.314427 1.62504
rclavicle -7.95139e-015 -1.77912e-014
rhumerus -24.2548 -5.79894 -81.565
rradius 24.877
rwrist 24.4251
rhand -22.6547 -13.0576
rfingers 7.12502
rthumb 3.77655 -43.0039
lclavicle -7.95139e-015 -1.77912e-014
lhumerus -32.3016 -7.0183 87.7943
lradius 41.9614
lwrist 5.87149
lhand -20.7749 1.63786
lfingers 7.12502
lthumb 5.59173 31.5441
rfemur -27.7153 2.44506 25.8201
rtibia 35.1214
rfoot -12.893 -4.85347
rtoes -8.1249
lfemur -40.2865 7.56812 -18.1478
ltibia 62.8982
lfoot -3.03338 -4.99663
ltoes -17.2439
1456
root 7.62682 16.7762 -3.32292 4531.83 -94.7334 -4516.41
lowerback 0.991515 1.62682 2.9727
upperback 2.05058 2.1363 0.546156
thorax 1.63634 1.09837 -1.09277
lowerneck -20.0667 1.37088 -2.53755
upperneck 34.6054 1.30068 2.37147
head 15.5046 0.29101 1.62558
rclavicle -3.33958e-014 -1.5207e-014
rhumerus -23.8444 -5.06424 -81.7525
rradius 25.6055
rwrist 23.4764
rhand -23.0391 -13.1658
rfingers 7.12502
rthumb 3.40533 -43.1183
lclavicle -3.33958e-014 -1.5207e-014
lhumerus -32.6362 -6.93487 87.8592
lradius 41.2183
lwrist 6.00799
lhand -20.3189 1.84214
lfingers 7.12502
lthumb 6.03194 31.7363
rfemur -26.8167 2.49127 26.0332
rtibia 34.7942
rfoot -13.2691 -4.85863
rtoes -8.15248
lfemur -41.5976 7.50582 -18.4906
ltibia 61.4056
lfoot -3.26991 -5.15059
ltoes -16.6194
1457
root 7.64818 16.7781 -3.32498 4533.23 -94.5988 -4517.68
lowerback 0.942687 1.7879 2.99905
upperback 1.97221 2.35391 0.443751
thorax 1.59769 1.2079 -1.21043
lowerneck -20.0188 1.35994 -2.41796
upperneck 34.6143 1.26346 2.30347
head 15.5012 0.281627 1.56846
rclavicle -1.11319e-014 -9.24349e-015
rhumerus -23.4984 -4.26589 -81.9203
rradius 26.3738
rwrist 22.5686
rhand -23.2843 -13.3426
rfingers 7.12502
rthumb 3.16854 -43.2988
lclavicle -1.11319e-014 -9.24349e-015
lhumerus -33.0535 -6.8009 87.8992
lradius 40.4988
lwrist 6.1418
lhand -19.873 2.00874
lfingers 7.12502
lthumb 6.46243 31.8901
rfemur -25.8944 2.56353 26.1969
rtibia 34.402
rfoot -13.615 -5.04426
rtoes -8.60491
lfemur -42.8006 7.49817 -18.9219
ltibia 59.629
lfoot -3.71611 -5.20499
ltoes -18.3699
1458
root 7.66979 16.775 -3.32625 4534.99 -94.4096 -4519.34
lowerback 0.897327 1.96465 3.02436
upperback 1.94148 2.59065 0.343643
thorax 1.60783 1.32766 -1.3238
lowerneck -20.0316 1.33098 -2.39819
upperneck 34.6393 1.22395 2.27931
head 15.5182 0.26448 1.54822
rclavicle 3.18055e-015 1.82882e-014
rhumerus -23.0096 -3.38161 -82.0665
rradius 27.0339
rwrist 21.4119
rhand -23.6169 -13.1803
rfingers 7.12502
rthumb 2.84733 -43.141
lclavicle 3.18055e-015 1.82882e-014
lhumerus -33.4052 -6.53966 87.882
lradius 39.8274
lwrist 6.08227
lhand -19.4472 2.3718
lfingers 7.12502
lthumb 6.87346 32.2402
rfemur -24.909 2.60055 26.3608
rtibia 33.9342
rfoot -13.8263 -4.97983
rtoes -8.80962
lfemur -43.7508 7.43332 -19.2857
ltibia 57.516
lfoot -3.90463 -5.36904
ltoes -16.8468
1459
root 7.68958 16.7787 -3.32671 4537.18 -94.2595 -4521.45
lowerback 0.856101 2.10408 3.06861
upperback 1.91259 2.77717 0.269481
thorax 1.61582 1.42228 -1.42146
lowerneck -19.9969 1.34791 -2.32786
upperneck 34.6415 1.24286 2.22551
head 15.5119 0.274207 1.51625
rclavicle 2.54444e-014 9.74045e-015
rhumerus -22.5515 -2.58568 -82.1525
rradius 27.8039
rwrist 20.6755
rhand -23.6405 -13.2823
rfingers 7.12502
rthumb 2.82458 -43.2433
lclavicle 2.54444e-014 9.74045e-015
lhumerus -33.671 -6.11913 87.7772
lradius 38.9443
lwrist 5.94364
lhand -19.0612 2.27452
lfingers 7.12502
lthumb 7.24603 32.1305
rfemur -23.8019 2.79245 26.5177
rtibia 33.2992
rfoot -14.1997 -4.98391
rtoes -8.7174
lfemur -44.5675 7.33139 -19.6025
ltibia 55.1187
lfoot -4.25027 -5.23406
ltoes -18.3629
1460
root 7.70941 16.7829 -3.32487 4538.14 -94.0169 -4522.24
lowerback 0.774273 2.2504 2.98269
upperback 1.84577 2.97412 0.14689
thorax 1.60451 1.52043 -1.49506
lowerneck -19.977 1.35625 -2.25061
upperneck 34.6282 1.25085 2.16569
head 15.5021 0.280125 1.4785
rclavicle -1.27222e-014 2.62396e-014
rhumerus -22.0867 -1.69636 -82.2112
rradius 28.4727
rwrist 19.953
rhand -23.7185 -13.0133
rfingers 7.12502
rthumb 2.74919 -42.9754
lclavicle -1.27222e-014 2.62396e-014
lhumerus -33.9886 -5.76315 87.6686
lradius 38.1376
lwrist 5.63373
lhand -18.7886 2.33099
lfingers 7.12502
lthumb 7.50916 32.1777
rfemur -22.7664 2.90046 26.5116
rtibia 32.603
rfoot -14.418 -4.99928
rtoes -9.06815
lfemur -45.2963 7.14456 -20.0204
ltibia 52.4146
lfoot -4.34932 -5.02009
ltoes -16.1527
1461
root 7.72881 16.7896 -3.3239 4541.76 -93.892 -4525.72
lowerback 0.706437 2.40784 3.10353
upperback 1.82233 3.183 0.0833242
thorax 1.63926 1.6275 -1.6222
lowerneck -20.0007 1.36178 -2.17248
upperneck 34.6203 1.26784 2.07714
head 15.5053 0.286184 1.43086
rclavicle 2.8625e-014 2.38542e-015
rhumerus -21.5558 -0.918914 -82.2285
rradius 29.2229
rwrist 19.1781
rhand -23.6574 -12.8343
rfingers 7.12502
rthumb 2.80819 -42.7956
lclavicle 2.8625e-014 2.38542e-015
lhumerus -34.2323 -5.34758 87.5367
lradius 37.358
lwrist 5.40758
lhand -18.5898 2.56528
lfingers 7.12502
lthumb 7.70111 32.4051
rfemur -21.6101 3.05106 26.7396
rtibia 31.7485
rfoot -14.5882 -5.01527
rtoes -9.66669
lfemur -45.9365 7.04591 -20.2154
ltibia 49.5059
lfoot -4.56824 -4.64209
ltoes -17.1198
1462
root 7.75065 16.7834 -3.32175 4545.03 -93.6916 -4528.86
lowerback 0.694709 2.55942 3.12491
upperback 1.75718 3.38793 -0.00221764
thorax 1.59608 1.73009 -1.72008
lowerneck -20.0185 1.36852 -2.12896
upperneck 34.6429 1.28001 2.03211
head 15.521 0.290518 1.4071
rclavicle -6.36111e-014 1.98785e-014
rhumerus -21.0439 -0.0193586 -82.2677
rradius 29.9691
rwrist 18.2353
rhand -23.612 -13.0209
rfingers 7.12502
rthumb 2.85211 -42.9816
lclavicle -6.36111e-014 1.98785e-014
lhumerus -34.5372 -4.91911 87.3617
lradius 36.59
lwrist 5.15381
lhand -18.4625 2.72602
lfingers 7.12502
lthumb 7.82397 32.5613
rfemur -20.4696 3.45298 26.8366
rtibia 30.8766
rfoot -14.6865 -5.21302
rtoes -10.1939
lfemur -46.3817 6.95595 -20.4989
ltibia 46.3639
lfoot -4.71393 -4.15193
ltoes -17.3072
1463
root 7.77041 16.786 -3.31831 4547.45 -93.5659 -4531.17
lowerback 0.688809 2.65946 3.11884
upperback 1.72386 3.52316 -0.070358
thorax 1.57641 1.79779 -1.78521
lowerneck -20.0195 1.40908 -2.01804
upperneck 34.5987 1.34466 1.92394
head 15.5005 0.318647 1.3534
rclavicle -1.11319e-014 -5.1684e-015
rhumerus -20.5067 0.77967 -82.2474
rradius 30.6621
rwrist 17.7293
rhand -23.6633 -12.8813
rfingers 7.12502
rthumb 2.80255 -42.8426
lclavicle -1.11319e-014 -5.1684e-015
lhumerus -34.7802 -4.47553 87.1836
lradius 35.7781
lwrist 5.08036
lhand -18.5055 2.74212
lfingers 7.12502
lthumb 7.78242 32.5789
rfemur -19.2289 3.48753 26.9403
rtibia 29.8981
rfoot -14.7573 -5.12842
rtoes -10.6007
lfemur -46.7242 6.76661 -20.7265
ltibia 43.065
lfoot -4.855 -3.60884
ltoes -18.5974
1464
root 7.7919 16.7789 -3.31531 4551.11 -93.5284 -4534.66
lowerback 0.640043 2.77425 3.24149
upperback 1.6701 3.67673 -0.137598
thorax 1.56944 1.87641 -1.91895
lowerneck -20.0432 1.406 -1.93999
upperneck 34.5838 1.3396 1.85803
head 15.5008 0.318656 1.31114
rclavicle 1.27222e-014 6.75868e-015
rhumerus -20.0351 1.48822 -82.2184
rradius 31.4254
rwrist 17.2702
rhand -23.6129 -12.8538
rfingers 7.12502
rthumb 2.85118 -42.8145
lclavicle 1.27222e-014 6.75868e-015
lhumerus -35.0254 -4.08371 86.9552
lradius 35.024
lwrist 4.90329
lhand -18.5325 2.99906
lfingers 7.12502
lthumb 7.75641 32.8368
rfemur -18.07 3.63066 27.1339
rtibia 28.9142
rfoot -14.7638 -5.05756
rtoes -10.657
lfemur -46.9766 6.53104 -20.8082
ltibia 39.599
lfoot -5.06627 -2.86003
ltoes -17.2597
1465
root 7.8091 16.77 -3.3085 4555.03 -93.4501 -4538.45
lowerback 0.621319 2.84913 3.31237
upperback 1.63024 3.77723 -0.16982
thorax 1.55179 1.92732 -1.98997
lowerneck -20.0521 1.46718 -1.89164
upperneck 34.5395 1.4517 1.76851
head 15.4801 0.360663 1.28527
rclavicle -8.11041e-014 1.11319e-014
rhumerus -19.5272 2.35076 -82.1399
rradius 32.1198
rwrist 16.9306
rhand -23.5729 -12.76
rfingers 7.12502
rthumb 2.8898 -42.7201
lclavicle -8.11041e-014 1.11319e-014
lhumerus -35.3077 -3.52534 86.7244
lradius 34.2491
lwrist 4.74848
lhand -18.8178 3.07678
lfingers 7.12502
lthumb 7.481 32.9245
rfemur -16.8043 3.66994 27.2959
rtibia 27.8307
rfoot -14.6308 -4.95182
rtoes -11.5429
lfemur -47.089 6.26137 -20.845
ltibia 36.0223
lfoot -5.27809 -1.88248
ltoes -18.0453
1466
root 7.82373 16.7625 -3.29948 4558.48 -93.4078 -4541.78
lowerback 0.563246 2.94194 3.42809
upperback 1.62849 3.89958 -0.239179
thorax 1.60286 1.99151 -2.11987
lowerneck -20.1586 1.47165 -1.84066
upperneck 34.5087 1.47035 1.7121
head 15.4911 0.369587 1.25727
rclavicle -1.43125e-014 -1.07344e-014
rhumerus -18.998 3.00494 -82.0715
rradius 32.8148
rwrist 16.4956
rhand -23.6019 -12.6374
rfingers 7.12502
rthumb 2.86184 -42.598
lclavicle -1.43125e-014 -1.07344e-014
lhumerus -35.4807 -3.05017 86.4658
lradius 33.4368
lwrist 4.60699
lhand -19.0862 3.19907
lfingers 7.12502
lthumb 7.22195 33.0558
rfemur -15.4845 3.73029 27.4267
rtibia 26.7011
rfoot -14.5606 -4.86072
rtoes -12.0744
lfemur -47.0528 5.86044 -20.7969
ltibia 32.3739
lfoot -5.62816 -0.724028
ltoes -19.1014
1467
root 7.83712 16.7528 -3.28886 4562.84 -93.4496 -4546.11
lowerback 0.562498 3.01557 3.61884
upperback 1.66441 3.99589 -0.255958
thorax 1.66118 2.04356 -2.23977
lowerneck -20.2019 1.51771 -1.75961
upperneck 34.3899 1.56214 1.60227
head 15.4443 0.407503 1.21314
rclavicle -2.54444e-014 2.22639e-014
rhumerus -18.4542 3.60675 -81.9519
rradius 33.5148
rwrist 16.3862
rhand -23.6664 -12.7639
rfingers 7.12502
rthumb 2.79956 -42.7253
lclavicle -2.54444e-014 2.22639e-014
lhumerus -35.6732 -2.54548 86.2172
lradius 32.6808
lwrist 4.4806
lhand -19.3921 3.33531
lfingers 7.12502
lthumb 6.92671 33.202
rfemur -14.0293 3.88004 27.6535
rtibia 25.4851
rfoot -14.3856 -4.90239
rtoes -12.624
lfemur -46.81 5.27484 -20.452
ltibia 28.6939
lfoot -6.09417 0.658241
ltoes -19.2751
